<svg width="56" height="56" viewBox="0 0 56 56" fill="none" xmlns="http://www.w3.org/2000/svg">
<path d="M49 26.8333V20.5333C49 16.6129 49 14.6527 48.237 13.1554C47.5659 11.8382 46.4951 10.7674 45.1779 10.0962C43.6806 9.33329 41.7204 9.33329 37.8 9.33329H18.2C14.2796 9.33329 12.3194 9.33329 10.8221 10.0962C9.50493 10.7674 8.43407 11.8382 7.76295 13.1554C7 14.6527 7 16.6129 7 20.5333V40.1333C7 44.0537 7 46.0138 7.76295 47.5112C8.43407 48.8284 9.50493 49.8992 10.8221 50.5703C12.3194 51.3333 14.2796 51.3333 18.2 51.3333H29.1667M49 23.3333H7M37.3333 4.66663V14M18.6667 4.66663V14M42 49V35M35 42H49" stroke="#3E7BFA" stroke-width="4.66667" stroke-linecap="round" stroke-linejoin="round"/>
</svg>
