<svg width="56" height="56" viewBox="0 0 56 56" fill="none" xmlns="http://www.w3.org/2000/svg">
<g id="compass-03">
<g id="Icon">
<path d="M28 51.3334C40.8866 51.3334 51.3333 40.8867 51.3333 28.0001C51.3333 15.1134 40.8866 4.66675 28 4.66675C15.1133 4.66675 4.66663 15.1134 4.66663 28.0001C4.66663 40.8867 15.1133 51.3334 28 51.3334Z" stroke="#3E7BFA" stroke-width="5" stroke-linecap="round" stroke-linejoin="round"/>
<path d="M34.3515 19.2873C35.4915 18.9074 36.0615 18.7174 36.4405 18.8525C36.7703 18.9701 37.0299 19.2297 37.1475 19.5596C37.2827 19.9386 37.0927 20.5086 36.7127 21.6485L33.2418 32.0613C33.1336 32.386 33.0794 32.5483 32.9872 32.6831C32.9056 32.8025 32.8024 32.9057 32.683 32.9874C32.5482 33.0796 32.3858 33.1337 32.0612 33.2419L21.6484 36.7128C20.5084 37.0928 19.9385 37.2828 19.5594 37.1476C19.2296 37.03 18.97 36.7705 18.8524 36.4406C18.7172 36.0616 18.9072 35.4916 19.2872 34.3517L22.7581 23.9389C22.8664 23.6142 22.9205 23.4519 23.0127 23.3171C23.0944 23.1977 23.1975 23.0945 23.3169 23.0128C23.4517 22.9206 23.6141 22.8665 23.9387 22.7583L34.3515 19.2873Z" stroke="#3E7BFA" stroke-width="5" stroke-linecap="round" stroke-linejoin="round"/>
</g>
</g>
</svg>
