<svg width="56" height="56" viewBox="0 0 56 56" fill="none" xmlns="http://www.w3.org/2000/svg">
<g id="flag-06">
<path id="Icon" d="M9.33331 49L9.33331 9.33333M9.33331 30.3333H26.6C27.9068 30.3333 28.5602 30.3333 29.0593 30.079C29.4983 29.8553 29.8553 29.4984 30.079 29.0593C30.3333 28.5602 30.3333 27.9068 30.3333 26.6V10.7333C30.3333 9.42654 30.3333 8.77315 30.079 8.27402C29.8553 7.83498 29.4983 7.47802 29.0593 7.25432C28.5602 7 27.9068 7 26.6 7H13.0666C11.7599 7 11.1065 7 10.6073 7.25432C10.1683 7.47802 9.81134 7.83498 9.58763 8.27402C9.33331 8.77315 9.33331 9.42654 9.33331 10.7333V30.3333ZM30.3333 11.6667H45.2667C46.5734 11.6667 47.2268 11.6667 47.726 11.921C48.165 12.1447 48.522 12.5016 48.7457 12.9407C49 13.4398 49 14.0932 49 15.4V31.2667C49 32.5735 49 33.2269 48.7457 33.726C48.522 34.165 48.165 34.522 47.726 34.7457C47.2268 35 46.5734 35 45.2667 35H34.0667C32.7599 35 32.1065 35 31.6073 34.7457C31.1683 34.522 30.8113 34.165 30.5876 33.726C30.3333 33.2269 30.3333 32.5735 30.3333 31.2667V11.6667Z" stroke="#3E7BFA" stroke-width="5" stroke-linecap="round" stroke-linejoin="round"/>
</g>
</svg>
