<svg width="76" height="48" viewBox="0 0 76 48" fill="none" xmlns="http://www.w3.org/2000/svg">
<g id="#fce389ff">
<path id="Vector" d="M1.32931 2.9794C4.80916 2.00395 8.26431 0.959121 11.7442 0C15.467 2.24067 19.3134 4.29768 22.995 6.60365C24.5805 8.20354 25.7583 10.1544 27.2244 11.8686C29.1764 11.7258 31.0955 11.3013 33.0434 11.134C34.6947 11.134 36.3296 11.4115 37.9687 11.5666C38.817 11.0197 39.6571 10.4687 40.5014 9.91772C41.3579 11.2605 42.2886 12.5747 43.6065 13.5175C43.6435 14.0154 43.6847 14.5133 43.7259 15.0153C44.2777 14.9949 44.8378 14.9745 45.3937 14.9582C45.439 16.803 45.3649 18.6437 45.2784 20.4844C45.8138 20.4884 46.3533 20.5089 46.8886 20.5497C47.5228 21.7333 47.4446 23.1454 47.7452 24.427C49.4419 24.5412 51.2704 24.2066 52.8888 24.6759C53.3089 25.8187 53.8278 26.937 54.9273 27.59C55.9569 26.1493 56.8629 24.5902 58.1477 23.3536C59.5026 22.2271 60.9646 21.2353 62.3688 20.166C63.6002 19.1702 65.2886 19.3334 66.7712 19.0926C67.2324 18.9702 68.0355 19.1906 67.7884 19.8109C66.5694 20.9701 65.0745 21.7904 63.7567 22.8312C65.0004 23.072 65.6016 24.0147 65.8446 25.1616C66.5117 25.1208 67.183 25.0759 67.8543 25.0188C67.9037 24.431 67.9572 23.8433 68.0149 23.2556C68.5255 23.2515 69.0403 23.2679 69.5509 23.3087C69.9792 23.8311 70.2799 24.4474 70.7452 24.9453C72.3431 25.9779 74.2786 26.2391 76 26.9941C74.8057 28.1002 73.5703 29.2389 71.993 29.7695C71.0088 30.0674 70.2757 30.7735 69.5221 31.4224C68.5502 31.3898 67.6483 30.9735 66.7341 30.6878C65.9475 31.0918 65.1651 31.5 64.3785 31.904C63.8843 31.0714 63.3119 30.2837 62.6365 29.5858C63.2048 28.9859 63.7937 28.4104 64.3991 27.8431C64.1479 27.6839 63.6496 27.3615 63.4025 27.2023C62.1341 27.8676 60.8616 28.7532 59.3461 28.492C59.3708 29.292 59.412 30.0919 59.4408 30.8918C58.6831 31.0429 57.9089 31.1245 57.1799 31.3775C56.5622 32.2958 56.241 33.3815 55.6274 34.3039C54.3508 34.5365 53.0412 34.4957 51.7481 34.5365C51.604 34.7202 51.3157 35.0875 51.1715 35.2671C51.5257 35.7568 51.8799 36.2466 52.2381 36.7364C52.5635 36.7282 53.21 36.7078 53.5354 36.6996C53.8113 37.1037 54.0872 37.5118 54.3631 37.924C54.1902 38.4832 54.0048 39.0423 53.9184 39.626C54.1737 40.2953 54.5773 40.9034 54.8408 41.5728C54.7996 42.638 54.532 43.6828 54.3384 44.7277C53.8072 45.2338 53.2759 45.7439 52.7529 46.25C52.7241 46.7928 52.6953 47.3357 52.6747 47.8826C51.5257 47.9887 50.3726 48.0091 49.2237 47.9968C48.9766 47.6744 48.7295 47.3561 48.4824 47.0377C47.9552 46.9928 47.4281 46.9479 46.901 46.903C46.6127 46.0827 46.345 45.2542 46.0691 44.4338C46.1721 44.1032 46.378 43.438 46.4768 43.1074C44.9037 42.6707 43.2358 42.3442 41.9386 41.283C39.7683 39.5811 36.8938 39.1076 34.7771 37.3241C32.9569 35.8507 31.0872 34.4386 29.2587 32.9733C28.3569 32.353 28.3198 31.1735 27.8915 30.2592C27.1008 28.6104 26.7014 26.6187 24.9717 25.6473C24.7946 25.7575 24.4405 25.982 24.2634 26.0962C22.5626 25.3126 20.693 25.3942 18.8768 25.5289C18.0285 23.7984 17.9791 21.8639 17.9214 19.9824C17.0443 19.8477 16.1712 19.7171 15.2981 19.5905C15.1005 19.1987 14.9069 18.811 14.7175 18.4233C14.4333 18.411 13.8691 18.3865 13.585 18.3702C13.2514 17.9662 12.9137 17.5621 12.5843 17.154C12.1148 17.3131 11.6495 17.4723 11.1841 17.6315C11.1923 17.9254 11.2129 18.5049 11.2212 18.7947C10.4593 18.9947 9.69743 19.1947 8.93557 19.3946C8.28902 20.464 7.51069 21.7047 6.03226 21.3251C5.55867 22.6679 6.00343 24.0311 6.29582 25.3575C4.38087 25.0637 2.44122 24.88 0.563332 24.4025C0.159751 22.2679 0.349189 20.0844 0.295653 17.9254C0.32448 13.2848 0.102094 8.64841 0.00737606 4.01198C-0.0914601 3.25285 0.826889 3.19571 1.32931 2.9794Z" fill="white"/>
</g>
</svg>
