<svg width="137" height="24" viewBox="0 0 137 24" fill="none" xmlns="http://www.w3.org/2000/svg">
<g id="#fcfcfcff">
<path id="Vector" d="M0 23.567C4.1905 15.7183 8.29494 7.82489 12.53 0C16.6641 7.86661 20.8605 15.7004 25.0006 23.567C23.211 23.567 21.4214 23.567 19.6348 23.567C19.0264 22.3871 18.421 21.2041 17.7918 20.033C14.2542 20.042 10.7166 20.042 7.17906 20.0301C6.57363 21.2041 5.99491 22.393 5.39542 23.567C3.59695 23.567 1.79847 23.567 0 23.567ZM9.58889 15.8196C11.5447 15.8196 13.5004 15.8196 15.4562 15.8196C14.462 13.8351 13.5004 11.8357 12.5092 9.85114C11.5179 11.8327 10.5594 13.8291 9.58889 15.8196Z" fill="white"/>
<path id="Vector_2" d="M58.2397 0.43504C61.1066 0.104285 64.0951 0.47974 66.6059 1.99347C70.366 4.12996 72.8144 8.46852 72.5058 12.825C72.2565 18.6057 67.1311 23.6028 61.4271 23.9395C58.6581 24.1749 55.7586 23.6356 53.4616 22.0116C50.3217 19.9287 48.0543 16.3649 48.0157 12.5299C47.8643 9.35947 49.182 6.20687 51.3782 3.95714C53.1826 2.05306 55.6696 0.855188 58.2397 0.43504ZM58.5127 4.89278C55.6369 5.7152 53.2746 8.32846 52.9125 11.338C52.319 15.7928 56.649 20.1463 61.1006 19.4758C64.9202 19.0497 68.0215 15.2028 67.517 11.3589C67.2499 8.77841 65.5107 6.481 63.2077 5.36061C61.7713 4.61268 60.0678 4.60374 58.5127 4.89278Z" fill="white"/>
<path id="Vector_3" d="M77.2572 3.12281C79.3643 0.953538 82.5547 0.327785 85.4631 0.441016C87.1162 0.646621 88.8345 0.66748 90.3748 1.38263C91.6272 1.87131 92.7639 2.59837 93.8679 3.35821C93.0339 4.65442 92.0872 5.87315 91.2176 7.14551C88.5793 5.36659 85.1574 3.95715 82.0324 5.31891C81.0233 5.61689 80.4951 6.85052 80.9877 7.78616C81.4448 8.50727 82.3173 8.79034 83.0919 9.01979C85.6234 9.6366 88.2469 9.92266 90.7013 10.8434C92.6333 11.5645 94.3961 13.1527 94.782 15.2624C95.1559 17.2291 94.871 19.4341 93.6483 21.067C92.3899 22.694 90.36 23.4508 88.4072 23.8203C83.9169 24.4699 79.115 23.3615 75.5775 20.4413C76.4322 19.1719 77.3166 17.9234 78.1743 16.654C80.869 18.5282 84.1989 20.0271 87.5435 19.3566C88.5645 19.0735 89.7664 18.4746 89.9771 17.3185C90.2353 16.2249 89.2055 15.4054 88.3033 15.0628C84.9527 13.9156 81.0589 14.0973 78.1386 11.8595C75.3727 9.95246 75.2332 5.61689 77.2572 3.12281Z" fill="white"/>
<path id="Vector_4" d="M26.3806 0.697266C29.6481 0.700245 32.9156 0.694287 36.1832 0.703226C38.1181 0.685348 40.1006 1.12039 41.7121 2.22887C44.211 4.05547 45.1993 7.46136 44.5582 10.4292C44.1042 12.8726 42.3354 14.9138 40.1184 15.9448C42.1247 18.4478 44.027 21.0283 46.0065 23.5551C44.0418 23.579 42.0772 23.5611 40.1155 23.567C38.2428 21.222 36.4473 18.8143 34.6458 16.4156C33.5151 16.4156 32.3844 16.4126 31.2537 16.4186C31.2596 18.7994 31.2537 21.1832 31.2537 23.567C29.6303 23.567 28.0069 23.567 26.3836 23.567C26.3806 15.9418 26.3806 8.31953 26.3806 0.697266ZM31.2626 12.1783C33.0076 12.1664 34.7527 12.235 36.4948 12.1575C38.041 12.0472 39.7089 10.9358 39.8068 9.26114C40.0175 7.57458 39.2875 5.2593 37.3465 5.02986C35.3284 4.82128 33.2925 4.98814 31.2655 4.93749C31.2507 7.35111 31.2566 9.76472 31.2626 12.1783Z" fill="white"/>
<path id="Vector_5" d="M95.6426 0.724073C101.703 0.741952 107.766 0.700237 113.829 0.703217C113.835 2.11265 113.841 3.52208 113.823 4.93151C111.621 4.93747 109.419 4.92257 107.22 4.94045C107.232 11.1503 107.217 17.3602 107.226 23.573C105.567 23.567 103.908 23.567 102.249 23.57C102.249 17.3602 102.243 11.1503 102.258 4.94045C100.047 4.94343 97.8329 4.93748 95.6189 4.93748C95.6308 3.53401 95.6456 2.13053 95.6426 0.724073Z" fill="white"/>
<path id="Vector_6" d="M116.853 0.694295C120.136 0.694295 123.421 0.682373 126.703 0.691312C128.766 0.682373 130.918 1.1651 132.556 2.47918C135.871 5.26825 136.159 10.8464 133.25 14.0288C132.517 14.8452 131.576 15.4323 130.618 15.9418C132.624 18.4478 134.547 21.0223 136.5 23.567C134.538 23.579 132.58 23.567 130.621 23.573C128.745 21.2279 126.941 18.8262 125.145 16.4215C124.012 16.4215 122.878 16.4215 121.747 16.4245C121.756 18.8054 121.753 21.1892 121.753 23.57C120.121 23.57 118.489 23.567 116.856 23.573C116.853 15.9478 116.85 8.31954 116.853 0.694295ZM121.768 12.1635C123.504 12.1337 125.24 12.2022 126.976 12.1396C128.529 12.0592 130.205 10.9388 130.297 9.26114C130.505 7.58949 129.793 5.29804 127.882 5.04476C125.852 4.8183 123.804 5.00305 121.768 4.9375C121.75 7.34515 121.744 9.75579 121.768 12.1635Z" fill="white"/>
</g>
</svg>
