<svg width="56" height="56" viewBox="0 0 56 56" fill="none" xmlns="http://www.w3.org/2000/svg">
<g id="Signpost">
<path id="Vector" d="M54.4513 22.75L46.5763 14C46.3306 13.7254 46.0299 13.5056 45.6938 13.3548C45.3576 13.204 44.9934 13.1257 44.625 13.125H30.625V7C30.625 6.30381 30.3484 5.63613 29.8562 5.14384C29.3639 4.65156 28.6962 4.375 28 4.375C27.3038 4.375 26.6361 4.65156 26.1438 5.14384C25.6516 5.63613 25.375 6.30381 25.375 7V13.125H8.75C7.58968 13.125 6.47688 13.5859 5.65641 14.4064C4.83594 15.2269 4.375 16.3397 4.375 17.5V31.5C4.375 32.0745 4.48816 32.6434 4.70803 33.1742C4.92789 33.705 5.25015 34.1873 5.65641 34.5936C6.06266 34.9999 6.54496 35.3221 7.07576 35.542C7.60656 35.7618 8.17547 35.875 8.75 35.875H25.375V49C25.375 49.6962 25.6516 50.3639 26.1438 50.8562C26.6361 51.3484 27.3038 51.625 28 51.625C28.6962 51.625 29.3639 51.3484 29.8562 50.8562C30.3484 50.3639 30.625 49.6962 30.625 49V35.875H44.625C44.9934 35.8743 45.3576 35.796 45.6938 35.6452C46.0299 35.4945 46.3306 35.2746 46.5763 35L54.4513 26.25C54.8817 25.7687 55.1197 25.1457 55.1197 24.5C55.1197 23.8543 54.8817 23.2313 54.4513 22.75ZM43.4569 30.625H9.625V18.375H43.4569L48.9694 24.5L43.4569 30.625Z" fill="#3E7BFA"/>
</g>
</svg>
