<svg width="48" height="48" viewBox="0 0 48 48" fill="none" xmlns="http://www.w3.org/2000/svg">
<g clip-path="url(#clip0_9_97)">
<path fill-rule="evenodd" clip-rule="evenodd" d="M23.9998 15C23.9999 15 24 15 24 16L23.9999 17L23.9245 17.0001C23.8745 17.0002 23.8005 17.0004 23.7057 17.0009C23.5159 17.0018 23.2425 17.0036 22.9088 17.0071C22.241 17.0143 21.3339 17.0286 20.3747 17.0571C19.4138 17.0856 18.4086 17.1282 17.5421 17.1914C16.654 17.2562 15.9941 17.3376 15.6653 17.4242C15.3666 17.51 15.0955 17.6725 14.8791 17.8957C14.668 18.1133 14.5161 18.3812 14.4376 18.6738C14.138 20.3474 13.9915 22.0448 13.9999 23.7451L14 23.7563C13.9893 25.4635 14.1347 27.1681 14.4344 28.8487C14.5211 29.1264 14.6745 29.3788 14.8815 29.5837C15.0984 29.7984 15.3669 29.9537 15.6611 30.0347C15.9884 30.1217 16.6502 30.2035 17.5421 30.2686C18.4086 30.3318 19.4138 30.3744 20.3747 30.4029C21.3339 30.4314 22.241 30.4457 22.9088 30.4529C23.2425 30.4564 23.5159 30.4582 23.7057 30.4591C23.8005 30.4596 23.8745 30.4598 23.9245 30.4599H24.0754C24.1255 30.4598 24.1994 30.4596 24.2943 30.4591C24.484 30.4582 24.7575 30.4564 25.0911 30.4529C25.7589 30.4457 26.666 30.4314 27.6253 30.4029C28.5861 30.3744 29.5914 30.3318 30.4578 30.2686C31.346 30.2038 32.0058 30.1224 32.3346 30.0358C32.6333 29.95 32.9044 29.7875 33.1208 29.5643C33.332 29.3467 33.4839 29.0788 33.5624 28.7863C33.8596 27.1253 34.006 25.4409 34 23.7536L33.9999 23.7437C34.0107 22.0306 33.8642 20.3201 33.5624 18.6338C33.4839 18.3412 33.332 18.0733 33.1208 17.8557C32.9069 17.6351 32.6395 17.4737 32.3449 17.3872C32.0049 17.3072 31.3426 17.2335 30.4641 17.175C29.5959 17.1172 28.5893 17.0782 27.6278 17.0521C26.6679 17.0261 25.7602 17.013 25.0921 17.0065C24.7582 17.0033 24.4846 17.0016 24.2947 17.0008L24.0756 17.0001L23.9999 17L24 16C24 15 23.9999 15 23.9998 15L24.0797 15.0001C24.1312 15.0002 24.2067 15.0004 24.3032 15.0008C24.4963 15.0017 24.7736 15.0033 25.1116 15.0066C25.7872 15.0132 26.7071 15.0264 27.6821 15.0529C28.6556 15.0793 29.6915 15.1191 30.597 15.1794C31.4767 15.238 32.3115 15.3202 32.8372 15.4485C32.8489 15.4514 32.8606 15.4545 32.8722 15.4578C33.5123 15.6389 34.0932 15.9857 34.5564 16.4631C35.0196 16.9406 35.3485 17.5319 35.51 18.1772C35.5154 18.1988 35.5201 18.2206 35.5241 18.2425C35.852 20.0602 36.0113 21.9043 36 23.7513C36.0062 25.5707 35.8469 27.3869 35.5241 29.1774C35.5201 29.1994 35.5154 29.2212 35.51 29.2428C35.3485 29.8881 35.0196 30.4794 34.5564 30.9569C34.0932 31.4343 33.5123 31.7811 32.8722 31.9622L32.8583 31.966C32.3247 32.1088 31.4826 32.1992 30.6033 32.2633C29.6961 32.3295 28.6588 32.3731 27.6847 32.4021C26.7089 32.4311 25.7885 32.4455 25.1125 32.4528C24.7743 32.4564 24.4969 32.4582 24.3036 32.4591C24.207 32.4595 24.1314 32.4598 24.0799 32.4599L24.0004 32.46L23.9201 32.4599C23.8685 32.4598 23.7929 32.4595 23.6963 32.4591C23.5031 32.4582 23.2256 32.4564 22.8874 32.4528C22.2114 32.4455 21.291 32.4311 20.3153 32.4021C19.3411 32.3731 18.3039 32.3295 17.3966 32.2633C16.5173 32.1992 15.6752 32.1088 15.1416 31.966L15.136 31.9646C14.509 31.793 13.9368 31.4626 13.4747 31.0052C13.0126 30.5479 12.6763 29.9792 12.4982 29.3539C12.4892 29.3222 12.4817 29.29 12.4758 29.2575C12.148 27.44 11.9887 25.5961 11.9999 23.7493C11.9912 21.9164 12.1505 20.0864 12.4758 18.2825C12.4798 18.2606 12.4845 18.2388 12.4899 18.2172C12.6514 17.5719 12.9804 16.9806 13.4435 16.5031C13.9067 16.0257 14.4876 15.6789 15.1277 15.4978L15.1416 15.494C15.6752 15.3512 16.5173 15.2608 17.3966 15.1967C18.3039 15.1305 19.3411 15.0869 20.3153 15.0579C21.291 15.0289 22.2114 15.0145 22.8874 15.0072C23.2256 15.0036 23.5031 15.0018 23.6963 15.0009C23.7929 15.0005 23.8685 15.0002 23.9201 15.0001L23.9998 15Z" fill="#BDBDBD"/>
<path fill-rule="evenodd" clip-rule="evenodd" d="M21.2472 19.6156C21.555 19.4365 21.9348 19.4347 22.2443 19.6107L27.9943 22.8807C28.3069 23.0585 28.5 23.3904 28.5 23.75C28.5 24.1096 28.3069 24.4415 27.9943 24.6192L22.2443 27.8892C21.9348 28.0653 21.555 28.0634 21.2472 27.8844C20.9394 27.7053 20.75 27.3761 20.75 27.02V20.48C20.75 20.1239 20.9394 19.7946 21.2472 19.6156ZM22.75 22.1991V25.3009L25.4771 23.75L22.75 22.1991Z" fill="#BDBDBD"/>
</g>
<rect x="4.75" y="4.75" width="38.5" height="38.5" rx="19.25" stroke="#E0E0E0" stroke-opacity="0.2" stroke-width="1.5"/>
<defs>
<clipPath id="clip0_9_97">
<rect width="24" height="24" fill="white" transform="translate(12 12)"/>
</clipPath>
</defs>
</svg>
