<svg width="48" height="48" viewBox="0 0 48 48" fill="none" xmlns="http://www.w3.org/2000/svg">
<path fill-rule="evenodd" clip-rule="evenodd" d="M19 15C16.7909 15 15 16.7909 15 19V29C15 31.2091 16.7909 33 19 33H29C31.2091 33 33 31.2091 33 29V19C33 16.7909 31.2091 15 29 15H19ZM13 19C13 15.6863 15.6863 13 19 13H29C32.3137 13 35 15.6863 35 19V29C35 32.3137 32.3137 35 29 35H19C15.6863 35 13 32.3137 13 29V19Z" fill="#BDBDBD"/>
<path fill-rule="evenodd" clip-rule="evenodd" d="M24.4833 20.989C23.8591 20.8964 23.2216 21.0031 22.6615 21.2937C22.1014 21.5843 21.6472 22.0441 21.3635 22.6078C21.0798 23.1714 20.9811 23.8102 21.0813 24.4332C21.1816 25.0562 21.4757 25.6317 21.9219 26.0779C22.3681 26.5241 22.9436 26.8182 23.5666 26.9184C24.1896 27.0187 24.8283 26.9199 25.392 26.6363C25.9556 26.3526 26.4155 25.8984 26.7061 25.3383C26.9967 24.7782 27.1033 24.1407 27.0108 23.5165C26.9164 22.8798 26.6197 22.2904 26.1645 21.8352C25.7094 21.3801 25.12 21.0834 24.4833 20.989ZM21.7404 19.5184C22.6739 19.0341 23.7363 18.8564 24.7766 19.0106C25.8378 19.168 26.8202 19.6625 27.5788 20.421C28.3373 21.1796 28.8318 22.162 28.9891 23.2231C29.1434 24.2634 28.9657 25.3259 28.4813 26.2594C27.997 27.1929 27.2306 27.9499 26.2912 28.4227C25.3518 28.8955 24.2872 29.0601 23.2489 28.893C22.2105 28.726 21.2513 28.2357 20.5077 27.4921C19.764 26.7484 19.2738 25.7892 19.1067 24.7509C18.9396 23.7126 19.1042 22.648 19.577 21.7086C20.0499 20.7692 20.8069 20.0028 21.7404 19.5184Z" fill="#BDBDBD"/>
<rect x="4.75" y="4.75" width="38.5" height="38.5" rx="19.25" stroke="#E0E0E0" stroke-opacity="0.2" stroke-width="1.5"/>
</svg>
