<svg width="48" height="48" viewBox="0 0 48 48" fill="none" xmlns="http://www.w3.org/2000/svg">
<path fill-rule="evenodd" clip-rule="evenodd" d="M33.84 18.0559C33.8836 17.7912 33.8555 17.5197 33.7585 17.2696C33.6615 17.0195 33.4992 16.8 33.2885 16.6339C33.0778 16.4679 32.8265 16.3614 32.5606 16.3255C32.2948 16.2896 32.0242 16.3257 31.777 16.4299L14.677 23.6299C13.485 24.1319 13.424 25.8559 14.677 26.3759C15.9177 26.8934 17.1765 27.3663 18.451 27.7939C19.619 28.1799 20.893 28.5369 21.914 28.6379C22.193 28.9719 22.544 29.2929 22.902 29.5879C23.449 30.0379 24.107 30.5009 24.787 30.9449C26.149 31.8349 27.66 32.6859 28.678 33.2399C29.895 33.8999 31.352 33.1399 31.57 31.8129L33.84 18.0559ZM16.594 24.9919L31.718 18.6249L29.6 31.4649C28.601 30.9219 27.162 30.1089 25.88 29.2709C25.2892 28.8916 24.7187 28.4813 24.171 28.0419C24.0246 27.9224 23.8825 27.7976 23.745 27.6679L27.706 23.7079C27.8937 23.5204 27.9991 23.2661 27.9992 23.0008C27.9993 22.7355 27.894 22.4811 27.7065 22.2934C27.519 22.1058 27.2647 22.0003 26.9994 22.0002C26.7341 22.0001 26.4797 22.1054 26.292 22.2929L21.955 26.6299C21.221 26.5359 20.199 26.2639 19.077 25.8939C18.2417 25.6157 17.4131 25.3149 16.594 24.9919Z" fill="#BDBDBD"/>
<rect x="4.75" y="4.75" width="38.5" height="38.5" rx="19.25" stroke="#E0E0E0" stroke-opacity="0.2" stroke-width="1.5"/>
</svg>
