<svg width="56" height="56" viewBox="0 0 56 56" fill="none" xmlns="http://www.w3.org/2000/svg">
<g id="users-check">
<path id="Icon" d="M37.3334 42L42 46.6667L51.3334 37.3333M28 35H18.6667C14.3179 35 12.1435 35 10.4283 35.7105C8.14138 36.6577 6.32442 38.4747 5.37714 40.7616C4.66669 42.4768 4.66669 44.6512 4.66669 49M36.1667 7.67844C39.5872 9.06301 42 12.4164 42 16.3333C42 20.2503 39.5872 23.6037 36.1667 24.9882M31.5 16.3333C31.5 21.488 27.3213 25.6667 22.1667 25.6667C17.012 25.6667 12.8334 21.488 12.8334 16.3333C12.8334 11.1787 17.012 7 22.1667 7C27.3213 7 31.5 11.1787 31.5 16.3333Z" stroke="#3E7BFA" stroke-width="5" stroke-linecap="round" stroke-linejoin="round"/>
</g>
</svg>
